<?xml version="1.0" encoding="utf-8"?>
<!-- Generator: Adobe Illustrator 17.1.0, SVG Export Plug-In . SVG Version: 6.00 Build 0)  -->
<!DOCTYPE svg PUBLIC "-//W3C//DTD SVG 1.1//EN" "http://www.w3.org/Graphics/SVG/1.1/DTD/svg11.dtd">
<svg version="1.1" id="Layer_1" xmlns="http://www.w3.org/2000/svg" xmlns:xlink="http://www.w3.org/1999/xlink" x="0px" y="0px"
	 viewBox="0 0 25 25" enable-background="new 0 0 25 25" xml:space="preserve">
<path fill="#FFFFFF" d="M9.4,3.5C6.4,3.5,3.9,6,3.9,9c0,3,2.5,5.5,5.5,5.5S14.9,12,14.9,9C14.9,6,12.5,3.5,9.4,3.5z M9.4,13.5
	C7,13.5,5,11.5,5,9c0-2.5,2-4.5,4.5-4.5c2.5,0,4.5,2,4.5,4.5C13.9,11.5,11.9,13.5,9.4,13.5z"/>
<path fill="#FFFFFF" d="M20.7,19.1c0.4,0.4,0.5,1,0.1,1.3l0,0c-0.3,0.3-0.9,0.3-1.3-0.1l-6.7-6.7c-0.4-0.4-0.5-1-0.1-1.3l0,0
	c0.3-0.3,0.9-0.3,1.3,0.1L20.7,19.1z"/>
</svg>
