<?xml version="1.0" encoding="utf-8"?>
<!-- Generator: Adobe Illustrator 17.1.0, SVG Export Plug-In . SVG Version: 6.00 Build 0)  -->
<!DOCTYPE svg PUBLIC "-//W3C//DTD SVG 1.1//EN" "http://www.w3.org/Graphics/SVG/1.1/DTD/svg11.dtd">
<svg version="1.1" id="Layer_1" xmlns="http://www.w3.org/2000/svg" xmlns:xlink="http://www.w3.org/1999/xlink" x="0px" y="0px"
	 viewBox="0 0 199.8 38" enable-background="new 0 0 199.8 38" xml:space="preserve">
<g>
	<path fill="#9B1C20" d="M5.5,21.2h6.1v5.2h-12V-0.2h5.9V21.2z"/>
	<path fill="#9B1C20" d="M25.6-0.2l6,26.6h-5.9L25,22.4h-4.7l-0.7,4.1h-5.9l6-26.6H25.6z M21.1,17.6h3.1l-1.5-9.3L21.1,17.6z"/>
	<path fill="#9B1C20" d="M39.7-0.2v11.6l4.4-11.6h7.1l-6.9,13.3l6.9,13.3h-7.1l-4.4-11.7v11.7h-5.9V-0.2H39.7z"/>
	<path fill="#9B1C20" d="M59.4,10.3H64v5.2h-4.6v5.8h6.4v5.2H53.5V-0.2h12.4V5h-6.4V10.3z"/>
	<path fill="#9B1C20" d="M74.8,7.2c0,4.7,8.5,4.4,8.5,12.1c0,4.5-0.7,7.6-7.5,7.6c-6.4,0-7.6-4.1-7.6-9.5h6.5c0,2.4,0,4.4,1.2,4.4
		c0.9,0,1-0.9,1-2.4c0-4.9-8.3-4.3-8.3-12.2c0-5.5,1.6-7.6,7.6-7.6c5.4,0,7.4,3.8,7.4,9.2H77c0-3.2-0.1-4.1-1.1-4.1
		C75.1,4.6,74.8,5,74.8,7.2z"/>
	<path fill="#9B1C20" d="M101.5-0.2v26.6h-5.9V16h-4v10.4h-5.9V-0.2h5.9v11h4v-11H101.5z"/>
	<path fill="#9B1C20" d="M120.9,13.2c0,10-0.6,13.7-8.6,13.7c-8,0-8.6-3.7-8.6-13.7c0-9.7,0.6-13.8,8.6-13.8
		C120.4-0.6,120.9,3.5,120.9,13.2z M110.3,13.2c0,7.4,0.2,8.5,2.1,8.5c1.9,0,2.1-1.2,2.1-8.5c0-7.2-0.2-8.6-2.1-8.6
		C110.5,4.6,110.3,5.9,110.3,13.2z"/>
	<path fill="#9B1C20" d="M129.1,16.4v10h-5.9V-0.2h5.9c7,0,9.4,2.5,9.4,8.1c0,3.1-0.6,5.3-2.3,6.3c3.1,2.4,2,9.1,2.8,12.1h-5.9
		c-0.5-2.6,0.5-7.7-1.8-10H129.1z M129.1,12.5c2.9,0,3.5-0.7,3.5-3.7s-0.6-4.1-3.5-4.1V12.5z"/>
	<path fill="#9B1C20" d="M147.2,10.3h4.6v5.2h-4.6v5.8h6.4v5.2h-12.4V-0.2h12.4V5h-6.4V10.3z"/>
</g>
<g>
	<path fill="#9B1C20" d="M109,32.7c0,4-0.2,5.5-3.5,5.5s-3.5-1.5-3.5-5.5c0-3.9,0.2-5.5,3.5-5.5S109,28.8,109,32.7z M104.7,32.7
		c0,3,0.1,3.4,0.8,3.4s0.8-0.5,0.8-3.4c0-2.9-0.1-3.5-0.8-3.5S104.7,29.8,104.7,32.7z"/>
	<path fill="#9B1C20" d="M114.4,33.3v-5.9h2.4v5.9c0,4.2-0.7,4.9-3.5,4.9c-2.8,0-3.5-0.7-3.5-4.9v-5.9h2.4v5.9c0,2.4,0.1,3,1,3
		C114.3,36.2,114.4,35.6,114.4,33.3z"/>
	<path fill="#9B1C20" d="M122.3,38h-2.4v-8.6h-2.1v-2.1h6.7v2.1h-2.1V38z"/>
	<path fill="#9B1C20" d="M131.8,32.5c0,4.3-0.6,5.5-3.6,5.5h-2.8V27.3h2.8c3,0,3.6,1.2,3.6,5.5V32.5z M129.4,32.8
		c0-3.5-0.2-3.6-1.7-3.6v6.8c1.5,0,1.7-0.1,1.7-3.6V32.8z"/>
	<path fill="#9B1C20" d="M139.6,32.7c0,4-0.2,5.5-3.5,5.5s-3.5-1.5-3.5-5.5c0-3.9,0.2-5.5,3.5-5.5S139.6,28.8,139.6,32.7z
		 M135.3,32.7c0,3,0.1,3.4,0.8,3.4s0.8-0.5,0.8-3.4c0-2.9-0.1-3.5-0.8-3.5S135.3,29.8,135.3,32.7z"/>
	<path fill="#9B1C20" d="M147.4,32.7c0,4-0.2,5.5-3.5,5.5c-3.2,0-3.5-1.5-3.5-5.5c0-3.9,0.2-5.5,3.5-5.5
		C147.1,27.1,147.4,28.8,147.4,32.7z M143.1,32.7c0,3,0.1,3.4,0.8,3.4c0.7,0,0.8-0.5,0.8-3.4c0-2.9-0.1-3.5-0.8-3.5
		C143.2,29.2,143.1,29.8,143.1,32.7z"/>
	<path fill="#9B1C20" d="M150.6,34v4h-2.4V27.3h2.4c2.8,0,3.8,1,3.8,3.3c0,1.2-0.2,2.1-0.9,2.5c1.3,1,0.8,3.6,1.1,4.9h-2.4
		c-0.2-1,0.2-3.1-0.7-4H150.6z M150.6,32.4c1.2,0,1.4-0.3,1.4-1.5c0-1.2-0.2-1.6-1.4-1.6V32.4z"/>
</g>
<polygon fill="#9B1C20" points="170.4,0 163.2,15 167.1,15 160,27.3 165.2,27.3 158.1,38 183.9,38 176.1,27.4 181.9,27.4 174.5,15 
	177.9,15 "/>
<polygon fill="#9B1C20" points="182.4,8.9 178.1,17.8 180.4,17.8 176.2,25.1 179.3,25.1 175.1,31.5 190.5,31.5 185.8,25.2 
	189.3,25.2 184.9,17.8 186.9,17.8 "/>
<polygon fill="#9B1C20" points="190,5.2 184.8,16.1 187.6,16.1 182.5,25 186.2,25 181.1,32.8 199.8,32.8 194.1,25.1 198.3,25.1 
	193,16.1 195.4,16.1 "/>
</svg>
